<svg xmlns="http://www.w3.org/2000/svg" viewBox="0 0 110 125" x="0px" y="0px" fill='white'>
    <path
        d="M84.1,2H29c-5,0-9,4-9,9v106c0,5,4,9,9,9h70c5,0,9-4,9-9V25.9L84.1,2z M84,7.6L102.4,26H89c-2.8,0-5-2.2-5-5  V7.6z M104,117c0,2.8-2.2,5-5,5H29c-2.8,0-5-2.2-5-5V94h80V117z M104,90H24V11c0-2.8,2.2-5,5-5h51v15c0,5,4,9,9,9h15V90z M61,110h3  c1.1,0,2,0.9,2,2s-0.9,2-2,2h-6.9c-1,0-1.9,0.7-2.1,1.7c-0.2,1.3,0.8,2.3,2,2.3h7c3.3,0,6-2.7,6-6s-2.7-6-6-6h-3c-1.1,0-2-0.9-2-2  s0.9-2,2-2h6.9c1,0,1.9-0.7,2.1-1.7c0.2-1.3-0.8-2.3-2-2.3h-7c-3.3,0-6,2.7-6,6S57.7,110,61,110z M82,118c1.1,0,2-0.9,2-2v-8.1  l2.2,4.1c0.4,0.7,1.1,1,1.8,1c0.7,0,1.4-0.4,1.8-1l2.2-4.1v8.1c0,1.1,0.9,2,2,2s2-0.9,2-2v-16c0-1.1-0.9-2-2-2c-0.8,0-1.4,0.4-1.7,1  c0,0-4.3,7.8-4.3,7.8S83.8,99,83.7,99c-0.3-0.6-1-1-1.7-1c-1.1,0-2,0.9-2,2v16C80,117.1,80.9,118,82,118z M33,117.9  c1,0.4,2.2-0.2,2.5-1.3l0.9-2.6h5.2l0.9,2.6c0.4,1,1.5,1.6,2.5,1.3s1.6-1.5,1.3-2.5l-5.4-16C40.6,98.5,40.1,98,39,98  c-1.1,0-1.7,0.7-1.9,1.4c0,0-5.4,16-5.4,16C31.4,116.4,32,117.5,33,117.9z M39,106.3l1.2,3.7h-2.5L39,106.3z M69.9,29.4L59,23.1  c-0.6-0.4-1.4-0.3-2,0c0,0-20.1,11.6-20.1,11.6c-0.6,0.3-1,1-1,1.7v27.7c0,0.6,0.3,1.4,1,1.7c0.2,0.1,34,19.6,34,19.6  c0.3,0.2,0.6,0.2,0.9,0.2c0.4,0,0.7-0.1,1-0.3c0,0,20.1-11.6,20.1-11.6c0.6-0.4,0.9-1,0.9-1.7c0,0,0-27.6,0-27.8  c0-0.3-0.1-0.6-0.3-0.9c-0.1-0.3-0.3-0.5-0.6-0.6C93,42.7,70,29.4,70,29.4C69.9,29.4,69.9,29.4,69.9,29.4z M58,27.1l7,4l-16,9.2  l-7-4L58,27.1z M59,73.9l-19-11V39.8l7,4v12.7c0,0.8,0.4,1.4,1,1.7c0.3,0.2,11,6.3,11,6.3V73.9z M70,80.2l-7-4V63.5  c0-0.7-0.4-1.4-1-1.7c-0.3-0.2-11-6.3-11-6.3v-9.2l19,11V80.2z M90,71l-16,9.2V57.1l16-9.2V71z M72,53.7l-19-11l16-9.2l19,11  L72,53.7z" />

</svg>